<?xml version="1.0" encoding="utf-8"?>
<!-- Generator: Adobe Illustrator 24.1.2, SVG Export Plug-In . SVG Version: 6.00 Build 0)  -->
<svg version="1.1" id="Layer_1" xmlns="http://www.w3.org/2000/svg" xmlns:xlink="http://www.w3.org/1999/xlink" x="0px" y="0px"
	 viewBox="0 0 332.6 332.6" style="enable-background:new 0 0 332.6 332.6;" xml:space="preserve">
<style type="text/css">
	.st0{fill:#FFFFFF;}
</style>
<g transform="matrix(-0.259, 0.966, -0.966, -0.259, 565.075, -18.623)">
	<g transform="translate(142 126)">
		<g transform="translate(60.241 60.241)">
			<path class="st0" d="M183.8,132.7c10.2,57.5-28.2,112.4-85.8,122.5S-14.4,227-24.5,169.5C-34.7,111.9,3.7,57.1,61.2,46.9
				C118.7,36.8,173.6,75.2,183.8,132.7z M-17.9,168.3c9.5,53.9,60.9,89.8,114.8,80.3s89.8-60.9,80.3-114.8
				C167.7,80,116.3,44,62.4,53.5c0,0,0,0,0,0C8.5,63.1-27.4,114.4-17.9,168.3z"/>
		</g>
		<g transform="translate(0)">
			<path class="st0" d="M303.3,182.5c15.9,90.1-44.5,176.4-134.6,192.3C78.6,390.7-7.7,330.3-23.6,240.2S20.9,63.8,111,47.8
				S287.4,92.3,303.3,182.5z M-17,239c15.3,86.5,98.1,144.4,184.6,129.2c86.5-15.3,144.5-98.1,129.2-184.6S198.7,39.2,112.2,54.4
				S-32.3,152.5-17,239z"/>
		</g>
		<g transform="translate(17.5 15.798)">
			<g transform="translate(0 107.725)">
				<path class="st0" d="M125.2,229.7L125,234c-0.2,3-2.8,5.2-5.8,4.9l-8.9-0.4c-3.1-0.1-5.4-2.6-5.3-5.2l0.2-5.4l5.9,0.3l-0.1,3
					c0,1.1,0.7,1.5,1.8,1.5l4.5,0.2c0.9,0.1,1.8-0.5,1.9-1.4c0-0.1,0-0.1,0-0.2l0.1-1.4c0.1-1.6-0.5-2.1-1.7-3l-8.8-7.1
					c-2.9-2.1-3.2-4.6-3.1-7l0.2-4.6c0.2-3,2.8-5.2,5.8-5c0,0,0,0,0,0l9.5,0.4c3,0,5.3,2.5,5.3,5.4l-0.2,5.2l-5.9-0.3l0.1-2.8
					c0.1-0.9-0.6-1.7-1.5-1.8c-0.1,0-0.1,0-0.2,0l-5-0.2c-0.9-0.1-1.7,0.5-1.9,1.4c0,0.1,0,0.1,0,0.2l-0.1,1.7
					c-0.1,1.6,0.5,2.1,1.7,3.3l8.8,6.7C124.4,224.3,125.6,227,125.2,229.7z"/>
			</g>
			<g transform="translate(5.946 80.228)">
				<path class="st0" d="M72.2,253.9l7.3,1.7l6.7-27.9L92,229L85.3,257l7.3,1.7l-1.4,5.8l-20.4-4.9L72.2,253.9z"/>
			</g>
			<g transform="translate(19.067 56.391)">
				<path class="st0" d="M34,267.1l11.7,5.4l3.6-7.8l-8.1-3.7l2.4-5.3l8.1,3.7l3.6-7.9l-11.7-5.4l2.4-5.3l17.1,7.9l-14.5,31.5
					l-17.1-7.9L34,267.1z"/>
			</g>
			<g transform="translate(40.791 38.37)">
				<path class="st0" d="M3.1,243.8l4.8,3.5l-3.4,8l7.2,5.3l6.6-5.6l4.8,3.5l-27,23.2l-6.9-5.1L3.1,243.8z M2,260.9l-5.4,12.6
					l10.4-8.9L2,260.9z"/>
			</g>
			<g transform="translate(60.245 18.499)">
				<path class="st0" d="M-34.6,262.5l3.5,3.9l9.6-8.5l3.9,4.5l-26,23l-10.2-11.5c-2-2.2-1.8-5.7,0.4-7.7c0,0,0,0,0,0l8.2-7.2
					c1.7-1.5,4.3-1.8,6.3-0.7L-32,246l4,4.6L-34.6,262.5z M-40.9,264.4c-0.4-0.4-1-0.4-1.4-0.1c0,0,0,0,0,0l-6,5.4
					c-0.4,0.4-0.4,1-0.1,1.4c0,0,0,0,0,0l5.3,5.9l7.5-6.7L-40.9,264.4z"/>
			</g>
			<g transform="translate(88.108 3.023)">
				<path class="st0" d="M-74.1,235.8l2.8,5.3l-14.4,7.6l17-2.8l2.1,3.9l-11.9,12.4l14.4-7.6l2.8,5.3l-30.6,16.2l-2.5-4.8l17.6-18.6
					l-25.2,4.2l-2.6-4.8L-74.1,235.8z"/>
			</g>
			<g transform="translate(126.728 0.029)">
				<path class="st0" d="M-119.2,212.8l1.4,5.8l-7.7,4l2.2,8.7l8.6-0.1l1.4,5.8l-35.6,0.5l-2.1-8.4L-119.2,212.8z M-131,225.3
					l-12.2,6.2l13.7-0.2L-131,225.3z"/>
			</g>
			<g transform="translate(153.384)">
				<path class="st0" d="M-146.5,188.1l0.2,7.8l-20.6,9.4l20.7-0.4l0.1,5.9l-34.7,0.7l-0.1-5.7l25.6-11.7l-25.8,0.5l-0.1-5.9
					L-146.5,188.1z"/>
			</g>
			<g transform="translate(202.502 19.707)">
				<path class="st0" d="M-208,109.4l9.5,4.2c2.7,1.2,4,4.4,2.8,7.2l-3.8,8.6l12.2,5.4l-2.4,5.4l-31.7-14.1l6.3-14
					c0.5-1.1,1.3-2,2.4-2.6C-211.7,108.7-210.1,108.5-208,109.4z M-210.3,116l-3.2,7.2l8.6,3.8l3.2-7.2c0.2-0.5,0-1.1-0.5-1.3
					l-6.8-3C-209.5,115.3-210.1,115.5-210.3,116L-210.3,116z"/>
			</g>
			<g transform="translate(223.557 39.42)">
				<path class="st0" d="M-226.4,74.7l6.4-8.8c1.7-2.4,5.1-3,7.6-1.3c0,0,0,0,0,0l19.8,14.3c2.4,1.8,3,5.2,1.2,7.6l-6.4,8.8
					c-1.7,2.4-5.1,3-7.6,1.2c0,0,0,0,0,0l-19.9-14.3C-227.6,80.5-228.2,77.1-226.4,74.7C-226.4,74.7-226.4,74.7-226.4,74.7z
					 M-197.2,82.9l-17.4-12.6c-0.4-0.3-1-0.2-1.4,0.2c0,0,0,0,0,0l-4.6,6.4c-0.3,0.4-0.2,1,0.2,1.4c0,0,0,0,0,0l17.4,12.6
					c0.4,0.3,1,0.2,1.4-0.2c0,0,0,0,0,0l4.6-6.4C-196.7,83.8-196.8,83.2-197.2,82.9C-197.2,82.9-197.2,82.9-197.2,82.9L-197.2,82.9z
					"/>
			</g>
			<g transform="translate(239.203 61.313)">
				<path class="st0" d="M-220.9,28.2l24.5,24.5l-4.2,4.2l-24.5-24.5L-220.9,28.2z"/>
			</g>
			<g transform="translate(245.516 74.756)">
				<path class="st0" d="M-181.1,22.5l-6.4,4.5l-19.4-11.7l12,16.9l-4.8,3.4l-20.1-28.2l4.6-3.3l24.1,14.6l-15-21.1l4.8-3.5
					L-181.1,22.5z"/>
			</g>
			<g transform="translate(257.792 104.908)">
				<path class="st0" d="M-183-43.5l-6.9,3l11.3,26.4l-5.5,2.3l-11.3-26.4l-6.9,3l-2.3-5.5l19.3-8.3L-183-43.5z"/>
			</g>
		</g>
		<g transform="translate(14.99 176.96)">
			<g transform="translate(0 0.006)">
				<path class="st0" d="M179.5,157c1.6-0.1,3,0.9,4,3.2l2.8,6.9c1.1,2.8-0.2,5.9-3,7.1c0,0,0,0,0,0l-14.3,5.7L156,147.7l14.3-5.7
					c2.8-1.1,5.9,0.2,7.1,3c0,0,0,0,0,0l2.8,6.9C181,154.3,180.7,156,179.5,157z M176.4,161.4l-7.4,2.9l3.1,7.8l7.4-2.9
					c0.5-0.2,0.8-0.8,0.6-1.3l-2.4-6C177.5,161.5,176.9,161.2,176.4,161.4L176.4,161.4z M174.2,155.9c0.5-0.2,0.8-0.8,0.6-1.3
					l-2.4-6c-0.2-0.5-0.8-0.8-1.3-0.6l-7.4,2.9l3.1,7.8L174.2,155.9z"/>
			</g>
			<g transform="translate(7.139 22.821)">
				<path class="st0" d="M191.8,128.1l-4.4,2.9l7.1,10.8l-5,3.3l-19.1-29l12.8-8.4c2.5-1.7,5.9-1,7.5,1.5c0,0,0,0,0,0l6,9.1
					c1.3,1.9,1.2,4.5-0.2,6.3l11.1,8.5l-5.1,3.3L191.8,128.1z M190.8,121.6c0.5-0.3,0.6-0.9,0.3-1.4l-4.4-6.7
					c-0.3-0.5-0.9-0.6-1.4-0.3c0,0,0,0,0,0l-6.6,4.4l5.5,8.4L190.8,121.6z"/>
			</g>
			<g transform="translate(20.245 44.605)">
				<path class="st0" d="M194.6,71.7l-9.2,9l6.1,6.1l6.4-6.3l4.1,4.1l-6.4,6.3l6.1,6.2l9.2-9l4.1,4.1l-13.4,13.2l-24.3-24.7
					l13.4-13.2L194.6,71.7z"/>
			</g>
			<g transform="translate(39.973 61.059)">
				<path class="st0" d="M216.6,45.1l-4.6,7.3L192.8,44l16,13.7l-4.6,7.3l-32.4-13.7l3.2-5l24.8,10.9l-20-18.4l2.6-4.2l25.3,10
					L187.1,27l3.2-5L216.6,45.1z"/>
			</g>
			<g transform="translate(69.296 84.374)">
				<path class="st0" d="M162.7-9.3L195,3.2l-2.1,5.5L160.5-3.7L162.7-9.3z"/>
			</g>
			<g transform="translate(82.4 89.736)">
				<path class="st0" d="M190-33.2l-1.6,7.7L166.2-21l20.3,4.3l-1.2,5.8l-33.9-7.2l1.2-5.6l27.6-5.5l-25.3-5.4l1.2-5.8L190-33.2z"/>
			</g>
			<g transform="translate(113.374 99.352)">
				<path class="st0" d="M130.9-66.2l0,6.9c0,0.5,0.4,1,1,1l21.5,0.1c0.5,0,1-0.4,1-1l0-6.9c0-0.5-0.4-1-1-1l-5.4,0l0,4l-5.9,0
					L142-73l12.9,0.1c3,0,5.4,2.4,5.4,5.4c0,0,0,0,0,0l0,9.9c0,3-2.4,5.4-5.4,5.4c0,0,0,0,0,0l-24.5-0.1c-3,0-5.4-2.4-5.4-5.4
					c0,0,0,0,0,0l0.1-9.9c0-3,2.4-5.4,5.4-5.4c0,0,0,0,0,0l5.4,0l0,5.9l-4,0C131.3-67.1,130.9-66.7,130.9-66.2z"/>
			</g>
			<g transform="translate(153.26 100.884)">
				<path class="st0" d="M85.7-103.7c-0.5,0.1-0.8,0.7-0.7,1.2c0,0,0,0,0,0l1.8,6.2c0.1,0.5,0.7,0.8,1.2,0.7c0,0,0,0,0,0l20.6-6.1
					c0.5-0.1,0.8-0.7,0.7-1.2c0,0,0,0,0,0l-1.8-6.2c-0.1-0.5-0.7-0.8-1.2-0.7c0,0,0,0-0.1,0l-6.2,1.8l-1.7-5.7l7.6-2.3
					c2.9-0.9,5.9,0.8,6.8,3.7l2.7,9c0.9,2.9-0.8,5.9-3.6,6.8c0,0,0,0,0,0l-23.4,7c-2.9,0.9-5.9-0.8-6.8-3.6c0,0,0,0,0,0l-2.7-9
					c-0.9-2.9,0.8-5.9,3.6-6.8c0,0,0,0,0,0l6.2-1.8l1.7,5.7L85.7-103.7z"/>
			</g>
			<g transform="translate(176.465 94.528)">
				<path class="st0" d="M50.8-107.9l-5.1-9.6c-1.4-2.6-0.4-5.9,2.2-7.4c0,0,0,0,0,0l21.6-11.5c2.7-1.4,5.9-0.4,7.4,2.2l5.1,9.6
					c1.4,2.6,0.4,5.9-2.2,7.4c0,0,0,0,0,0l-21.6,11.5C55.5-104.3,52.3-105.2,50.8-107.9C50.8-107.9,50.8-107.9,50.8-107.9z
					 M71-130.5l-19,10.1c-0.5,0.2-0.7,0.8-0.4,1.3c0,0,0,0,0,0l3.7,7c0.2,0.5,0.8,0.7,1.3,0.4c0,0,0,0,0,0l19-10.1
					c0.5-0.2,0.7-0.8,0.4-1.3c0,0,0,0,0,0l-3.7-7C72.1-130.6,71.5-130.8,71-130.5C71-130.5,71-130.5,71-130.5L71-130.5z"/>
			</g>
			<g transform="translate(197.821 78.809)">
				<path class="st0" d="M29.4-151.9l3.9,4.5L21-136.7l15.9-6.6l2.9,3.4l-8.7,14.8l12.3-10.7l3.9,4.5l-26.1,22.8l-3.6-4.1l12.9-22.2
					L6.8-125l-3.6-4.1L29.4-151.9z"/>
			</g>
			<g transform="translate(222.572 64.98)">
				<path class="st0" d="M-36.9-133.1l6.1-8.4c1.8-2.4,5.2-2.9,7.6-1.2l7.6,5.6l7.9-10.8l4.8,3.5l-20.5,28l-12.4-9.1
					c-1-0.7-1.7-1.7-2-2.9C-38.4-129.6-38.2-131.3-36.9-133.1z M-31-129.4l6.4,4.7l5.6-7.6l-6.4-4.7c-0.4-0.3-1.1-0.2-1.4,0.2
					l-4.4,6C-31.5-130.4-31.4-129.7-31-129.4L-31-129.4z"/>
			</g>
			<g transform="translate(241.74 50.104)">
				<path class="st0" d="M-65.9-155.4l5.4,2.5l-1.8,8.5l8.1,3.8l5.4-6.8l5.4,2.5l-22.1,27.9l-7.8-3.7L-65.9-155.4z M-63.6-138.5
					l-2.9,13.4l8.5-10.7L-63.6-138.5z"/>
			</g>
			<g transform="translate(251.756 21.705)">
				<path class="st0" d="M-106-134.8l7.6,1.8l4.1,22.2l4.7-20.2l5.8,1.3l-7.8,33.8l-5.6-1.3l-5-27.7l-5.8,25.2l-5.8-1.3L-106-134.8z
					"/>
			</g>
			<g transform="translate(261.221)">
				<path class="st0" d="M-144.6-109.2c0.1-3,2.6-5.4,5.6-5.3c0,0,0,0,0,0l12.7,0.3l-0.2,5.9l-11.2-0.3c-0.5,0-1,0.4-1,1
					c0,0,0,0,0,0l-0.2,7.9l8.4,0.2c3,0.1,5.4,2.6,5.3,5.6c0,0,0,0,0,0l-0.4,14.4l-5.9-0.2l0.4-12.9c0-0.5-0.4-1-1-1l-5.9-0.2
					c-0.5,0-1,0.4-1,1l-0.4,12.9l-5.9-0.2L-144.6-109.2z"/>
			</g>
		</g>
	</g>
</g>
</svg>
