<svg xmlns="http://www.w3.org/2000/svg" width="62" height="62" viewBox="0 0 62 62">
  <g id="Group_208" data-name="Group 208" style="isolation: isolate">
    <g id="Rectangle_550" data-name="Rectangle 550" transform="translate(0)" fill="none" stroke="#fff" stroke-width="3">
      <rect width="62" height="62" stroke="none"/>
      <rect x="1.5" y="1.5" width="59" height="59" fill="none"/>
    </g>
    <g id="Twitter" transform="translate(14.063 16.245)" style="isolation: isolate">
      <rect id="Rectangle_548" data-name="Rectangle 548" transform="translate(-0.063 -0.245)" fill="none"/>
      <path id="Path_2" data-name="Path 2" d="M48.9,29.92c13,0,20.08-10.709,20.08-20.08V8.884a15.545,15.545,0,0,0,3.442-3.633A15.875,15.875,0,0,1,68.406,6.4a7.44,7.44,0,0,0,3.06-3.825,17.541,17.541,0,0,1-4.4,1.721A6.83,6.83,0,0,0,61.9,2a7.185,7.185,0,0,0-7.076,7.076,3.728,3.728,0,0,0,.191,1.53A19.771,19.771,0,0,1,40.486,3.147a7.324,7.324,0,0,0-.956,3.633,7.6,7.6,0,0,0,3.06,5.928,6.447,6.447,0,0,1-3.251-.956h0a6.989,6.989,0,0,0,5.737,6.884,5.9,5.9,0,0,1-1.912.191,3.254,3.254,0,0,1-1.339-.191,7.245,7.245,0,0,0,6.693,4.972,14.439,14.439,0,0,1-8.8,3.06A5.294,5.294,0,0,1,38,26.478,18.05,18.05,0,0,0,48.9,29.92" transform="translate(-38 -1.114)" fill="#fff" fill-rule="evenodd"/>
    </g>
  </g>
</svg>
