<svg xmlns="http://www.w3.org/2000/svg" width="62" height="62" viewBox="0 0 62 62">
  <g id="Group_207" data-name="Group 207" transform="translate(-0.286)" style="isolation: isolate">
    <g id="Rectangle_549" data-name="Rectangle 549" transform="translate(0.286)" fill="none" stroke="#fff" stroke-width="3">
      <rect width="62" height="62" stroke="none"/>
      <rect x="1.5" y="1.5" width="59" height="59" fill="none"/>
    </g>
    <g id="Instagram" transform="translate(16.72 17.573)" style="isolation: isolate">
      <path id="Path_3" data-name="Path 3" d="M13.837,2.46a42.426,42.426,0,0,1,5.535.154,7.131,7.131,0,0,1,2.614.461A5.4,5.4,0,0,1,24.6,5.688,7.131,7.131,0,0,1,25.06,8.3c0,1.384.154,1.845.154,5.535a42.426,42.426,0,0,1-.154,5.535,7.131,7.131,0,0,1-.461,2.614A5.4,5.4,0,0,1,21.985,24.6a7.131,7.131,0,0,1-2.614.461c-1.384,0-1.845.154-5.535.154A42.426,42.426,0,0,1,8.3,25.06,7.131,7.131,0,0,1,5.688,24.6a5.4,5.4,0,0,1-2.614-2.614,7.131,7.131,0,0,1-.461-2.614c0-1.384-.154-1.845-.154-5.535A42.426,42.426,0,0,1,2.614,8.3a7.131,7.131,0,0,1,.461-2.614A5.522,5.522,0,0,1,4.151,4.151,2.6,2.6,0,0,1,5.688,3.075,7.131,7.131,0,0,1,8.3,2.614a42.426,42.426,0,0,1,5.535-.154m0-2.46A45.426,45.426,0,0,0,8.148.154,9.491,9.491,0,0,0,4.766.769a6.019,6.019,0,0,0-2.46,1.537A6.019,6.019,0,0,0,.769,4.766,7,7,0,0,0,.154,8.148,45.426,45.426,0,0,0,0,13.837a45.426,45.426,0,0,0,.154,5.688,9.491,9.491,0,0,0,.615,3.382,6.019,6.019,0,0,0,1.537,2.46A6.019,6.019,0,0,0,4.766,26.9a9.491,9.491,0,0,0,3.382.615,45.426,45.426,0,0,0,5.688.154,45.426,45.426,0,0,0,5.688-.154,9.491,9.491,0,0,0,3.382-.615,6.45,6.45,0,0,0,4-4,9.491,9.491,0,0,0,.615-3.382c0-1.537.154-2,.154-5.688a45.426,45.426,0,0,0-.154-5.688A9.491,9.491,0,0,0,26.9,4.766a6.019,6.019,0,0,0-1.537-2.46A6.019,6.019,0,0,0,22.908.769,9.491,9.491,0,0,0,19.525.154,45.426,45.426,0,0,0,13.837,0m0,6.765a6.958,6.958,0,0,0-7.072,7.072,7.072,7.072,0,1,0,7.072-7.072m0,11.684a4.53,4.53,0,0,1-4.612-4.612,4.53,4.53,0,0,1,4.612-4.612,4.53,4.53,0,0,1,4.612,4.612,4.53,4.53,0,0,1-4.612,4.612m7.38-13.683a1.691,1.691,0,1,0,1.691,1.691,1.706,1.706,0,0,0-1.691-1.691" fill="#fff" fill-rule="evenodd"/>
    </g>
  </g>
</svg>
